<svg xmlns:xlink="http://www.w3.org/1999/xlink" xmlns="http://www.w3.org/2000/svg" width="80" height="35" viewBox="0 0 30 45" fill="none">
	<path d="M25.0303 11H6.04439C4.6154 11 3.66175 12.4736 4.24714 13.7772L5.05813 15.5832C5.37595 16.2909 6.07955 16.7463 6.85538 16.7463H24.2399C25.0225 16.7463 25.7309 16.283 26.0447 15.566L26.8351 13.7601C27.4048 12.4584 26.4512 11 25.0303 11Z" fill="#625FFB" />
	<path d="M21.5019 18.8789H9.65341C8.22551 18.8789 7.27185 20.3505 7.85512 21.6538L8.66332 23.4598C8.98061 24.1688 9.68486 24.6252 10.4616 24.6252H20.7086C21.4902 24.6252 22.198 24.1631 22.5123 23.4474L23.3057 21.6414C23.8776 20.3395 22.9239 18.8789 21.5019 18.8789Z" fill="#9290FD" />
	<path d="M18.0351 26.7617H13.0949C11.668 26.7617 10.7143 28.2314 11.2957 29.5346L12.3211 31.8331C12.6379 32.5432 13.3427 33.0005 14.1203 33.0005H17.0283C17.8107 33.0005 18.5189 32.5375 18.8329 31.8208L19.8397 29.5223C20.4099 28.2206 19.4562 26.7617 18.0351 26.7617Z" fill="#BFBEFC" />
</svg>
